<svg width="50" height="50" viewBox="0 0 50 50" fill="none" xmlns="http://www.w3.org/2000/svg">
<rect x="1" y="0.994141" width="48" height="48" rx="24" fill="white"/>
<g clip-path="url(#clip0_291_255)">
<path d="M25.0001 13.0449C18.3727 13.0449 13 18.4176 13 25.045C13 30.989 17.3263 35.9116 22.9987 36.8648V27.5485H20.1039V24.196H22.9987V21.7239C22.9987 18.8556 24.7506 17.2926 27.3096 17.2926C28.5353 17.2926 29.5886 17.3839 29.8944 17.4241V20.4223L28.1194 20.4231C26.728 20.4231 26.4598 21.0842 26.4598 22.0546V24.1943H29.7798L29.3468 27.5468H26.4598V36.945C32.397 36.2224 37 31.1744 37 25.0416C37 18.4176 31.6273 13.0449 25.0001 13.0449Z" fill="#071215"/>
</g>
<rect x="1" y="0.994141" width="48" height="48" rx="24" stroke="#ECECF2"/>
<defs>
<clipPath id="clip0_291_255">
<rect width="24" height="24" fill="white" transform="translate(13 12.9941)"/>
</clipPath>
</defs>
</svg>
