<svg width="50" height="50" viewBox="0 0 50 50" fill="none" xmlns="http://www.w3.org/2000/svg">
<rect x="1" y="0.994141" width="48" height="48" rx="24" fill="white"/>
<g clip-path="url(#clip0_291_243)">
<path d="M30.9996 12.9941H18.9999C15.7002 12.9941 13 15.6944 13 18.994V30.9943C13 34.293 15.7002 36.9941 18.9999 36.9941H30.9996C34.2992 36.9941 36.9994 34.293 36.9994 30.9943V18.994C36.9994 15.6944 34.2992 12.9941 30.9996 12.9941ZM34.9994 30.9943C34.9994 33.1992 33.2057 34.9941 30.9996 34.9941H18.9999C16.7946 34.9941 15 33.1992 15 30.9943V18.994C15 16.7885 16.7946 14.9942 18.9999 14.9942H30.9996C33.2057 14.9942 34.9994 16.7885 34.9994 18.994V30.9943Z" fill="#071215"/>
<path d="M31.5 19.9941C32.3284 19.9941 32.9999 19.3225 32.9999 18.4941C32.9999 17.6657 32.3284 16.9941 31.5 16.9941C30.6716 16.9941 30 17.6657 30 18.4941C30 19.3225 30.6716 19.9941 31.5 19.9941Z" fill="#071215"/>
<path d="M24.9997 18.9941C21.6854 18.9941 18.9999 21.68 18.9999 24.994C18.9999 28.3068 21.6854 30.9944 24.9997 30.9944C28.3131 30.9944 30.9996 28.3068 30.9996 24.994C30.9996 21.68 28.3131 18.9941 24.9997 18.9941ZM24.9997 28.9944C22.7909 28.9944 20.9999 27.2035 20.9999 24.994C20.9999 22.7845 22.7909 20.9942 24.9997 20.9942C27.2086 20.9942 28.9995 22.7845 28.9995 24.994C28.9995 27.2035 27.2086 28.9944 24.9997 28.9944Z" fill="#071215"/>
</g>
<rect x="1" y="0.994141" width="48" height="48" rx="24" stroke="#ECECF2"/>
<defs>
<clipPath id="clip0_291_243">
<rect width="24" height="24" fill="white" transform="translate(13 12.9941)"/>
</clipPath>
</defs>
</svg>
